<svg width="158" height="158" viewBox="0 0 158 158" fill="none" xmlns="http://www.w3.org/2000/svg">
<path d="M140 47C140 30.9837 127.016 18 111 18H47C30.9837 18 18 30.9837 18 47V111C18 127.016 30.9837 140 47 140H111C127.016 140 140 127.016 140 111V47ZM158 111C158 136.957 136.957 158 111 158H47C21.0426 158 0 136.957 0 111V47C0 21.0426 21.0426 0 47 0H111C136.957 0 158 21.0426 158 47V111Z" fill="black"/>
<path d="M72.9344 124V62.96H83.1502V88.6477H112.059V62.96H122.233V124H112.059V98.2276H83.1502V124H72.9344Z" fill="black"/>
</svg>
