<svg width="444" height="158" viewBox="0 0 444 158" fill="none" xmlns="http://www.w3.org/2000/svg">
<path d="M140 47C140 30.9837 127.016 18 111 18H47C30.9837 18 18 30.9837 18 47V111C18 127.016 30.9837 140 47 140H111C127.016 140 140 127.016 140 111V47ZM158 111C158 136.957 136.957 158 111 158H47C21.0426 158 0 136.957 0 111V47C0 21.0426 21.0426 0 47 0H111C136.957 0 158 21.0426 158 47V111Z" fill="black"/>
<path d="M72.9344 124V62.96H83.1502V88.6477H112.059V62.96H122.233V124H112.059V98.2276H83.1502V124H72.9344Z" fill="black"/>
<path d="M191.934 109V47.96H202.15V73.6477H231.059V47.96H241.233V109H231.059V83.2276H202.15V109H191.934ZM273.93 110.272C269.295 110.272 265.226 109.268 261.722 107.262C258.218 105.256 255.476 102.472 253.498 98.9114C251.548 95.3508 250.574 91.2532 250.574 86.6187C250.574 81.6168 251.534 77.279 253.456 73.6053C255.378 69.9033 258.048 67.035 261.467 65.0003C264.887 62.9657 268.843 61.9483 273.336 61.9483C278.084 61.9483 282.111 63.0646 285.417 65.2971C288.752 67.5013 291.224 70.6239 292.835 74.665C294.446 78.7061 295.054 83.4678 294.658 88.9501H284.527V85.2198C284.499 80.2462 283.623 76.6149 281.899 74.3259C280.175 72.0369 277.462 70.8924 273.76 70.8924C269.578 70.8924 266.469 72.1923 264.435 74.7922C262.4 77.3638 261.383 81.1364 261.383 86.11C261.383 90.7445 262.4 94.3334 264.435 96.8768C266.469 99.4201 269.437 100.692 273.336 100.692C275.851 100.692 278.013 100.141 279.822 99.0386C281.659 97.9082 283.072 96.2833 284.061 94.1639L294.149 97.2159C292.397 101.342 289.684 104.549 286.011 106.838C282.365 109.127 278.338 110.272 273.93 110.272ZM258.161 88.9501V81.2353H289.656V88.9501H258.161ZM304.964 109V46.6883H315.179V109H304.964ZM382.855 109V81.1929C382.855 78.0561 382.078 75.6117 380.524 73.8596C378.97 72.0793 376.864 71.1891 374.208 71.1891C372.569 71.1891 371.099 71.5706 369.8 72.3336C368.5 73.0683 367.468 74.1705 366.705 75.6399C365.942 77.0812 365.561 78.805 365.561 80.8114L361.025 78.1409C360.997 74.9758 361.703 72.1923 363.144 69.7903C364.614 67.36 366.592 65.4666 369.079 64.1102C371.566 62.7537 374.335 62.0755 377.387 62.0755C382.446 62.0755 386.317 63.6015 389.002 66.6535C391.715 69.6772 393.071 73.6618 393.071 78.6072V109H382.855ZM327.792 109V63.22H336.821V77.4203H338.093V109H327.792ZM355.387 109V81.3201C355.387 78.1268 354.61 75.6399 353.056 73.8596C351.502 72.0793 349.382 71.1891 346.698 71.1891C344.098 71.1891 342.007 72.0793 340.424 73.8596C338.87 75.6399 338.093 77.9572 338.093 80.8114L333.515 77.7594C333.515 74.7922 334.249 72.1217 335.719 69.7479C337.188 67.3741 339.167 65.509 341.653 64.1526C344.168 62.7679 346.98 62.0755 350.089 62.0755C353.508 62.0755 356.362 62.8102 358.651 64.2797C360.969 65.7209 362.692 67.6991 363.823 70.2142C364.981 72.701 365.561 75.5128 365.561 78.6496V109H355.387ZM408.491 129.347L417.308 105.143L417.477 112.264L397.512 63.22H408.152L422.309 99.5049H419.597L433.373 63.22H443.589L418.071 129.347H408.491Z" fill="black"/>
</svg>
